<svg fill="none" height="24" viewBox="0 0 24 24" width="24" xmlns="http://www.w3.org/2000/svg"><path d="m17.9698 7.4448.2075-.30909.3599.21604.1587.11275c.3854.29337 1.1946 1.04433 1.3702 2.2876.3059-.05328.6154-.08074.9256-.08214.7342 0 1.2271.16963 1.508.30879l.1434.07825.094.0613.2629.2119-.09.2719c-.1435.375-.3647.7132-.648.9908-.3978.4062-1.0977.8857-2.2113.9478l-.245.0068h-.2027c-.5087 1.3282-1.1927 2.8227-2.3408 4.1647-.6867.8024-1.4944 1.485-2.3919 2.0217-1.0892.6368-2.2739 1.0811-3.505 1.3145-.8856.1701-1.78478.2543-2.6856.2515-1.99405 0-3.75318-.3913-4.83594-1.076-.96625-.6094-1.70894-1.605-2.20815-2.9568-.4365-1.231-.651589-2.534-.63469-3.8448.0019-.3582.26014-.6535.59473-.7006l.09301-.0066h14.49174l.1276-.0087.2043-.0224c.3527-.0457.8884-.1496 1.2662-.367-.4519-.7374-.5798-1.60009-.3695-2.51853.0891-.3846.2283-.75446.4134-1.0996zm-12.99545 1.69503.05402.00924c.05043.01765.09017.05914.10672.11142l.00834.05539v1.78602l-.00864.0553c-.01682.0522-.05678.0935-.10732.1108l-.0536.009h-1.94195c-.07493 0-.13849-.0502-.16091-.1198l-.00864-.0553v-1.78651l.00864-.05582c.01682-.05217.05677-.09344.10731-.11081l.0536-.00893zm2.67609 0 .05403.00924c.05045.01765.09019.05914.10673.11142l.00835.05539v1.78602l-.00864.0553c-.01682.0522-.05678.0935-.10732.1108l-.0536.009h-1.94195c-.07505 0-.13881-.0501-.1616-.1197l-.00894-.0554v-1.78602c0-.07779.04885-.14379.11661-.16707l.0539-.00898zm2.71686 0 .054.00924c.0504.01765.0902.05914.1067.11142l.0084.05539v1.78602l-.0087.0553c-.0168.0522-.0567.0935-.1073.1108l-.0536.009h-1.94194c-.0749 0-.13848-.0502-.16093-.1198l-.00866-.0553v-1.78651l.00865-.05582c.01682-.05217.05677-.09344.10731-.11081l.0536-.00893zm2.6842 0 .0539.00898c.0508.01746.091.05895.1079.11142l.0087.05565v1.78602c-.0004.0775-.0493.143-.1168.1662l-.0537.0089h-1.942c-.0749 0-.1385-.0502-.1609-.1198l-.0087-.0553v-1.78651l.0087-.05582c.0168-.05217.0568-.09344.1073-.11081l.0536-.00893zm2.7083 0 .0539.00898c.0508.01746.091.05895.1079.11142l.0087.05565v1.78602c-.0004.0775-.0493.143-.1168.1662l-.0537.0089h-1.942c-.0749 0-.1384-.0502-.1609-.1198l-.0086-.0553v-1.78651l.0086-.05582c.0168-.05217.0568-.09344.1073-.11081l.0536-.00893zm-8.10981-2.56941.05359.00893c.05053.01736.0905.05862.10732.1108l.00865.05534v1.78598c0 .07747-.0485.14332-.11591.16683l-.05365.00922h-1.94195c-.07518-.00043-.13886-.05075-.1616-.12053l-.00891-.05552v-1.78598c.00042-.07749.04927-.14304.11681-.16616l.0537-.00891zm2.71681 0 .0536.00893c.0505.01736.0905.05862.1073.1108l.0087.05534v1.78598c0 .07747-.0485.14332-.1159.16683l-.0537.00922h-1.94194c-.07503-.00043-.13853-.05087-.16093-.12061l-.00863-.05544v-1.78598l.00865-.05533c.01682-.05217.05677-.09344.10731-.11081l.0536-.00893zm2.6847 0c.075 0 .1388.05005.1615.11967l.009.0554v1.78598c-.0004.07762-.0492.14338-.1168.16685l-.0537.0092h-1.942c-.075-.00043-.1385-.05087-.1609-.12061l-.0087-.05544v-1.78598l.0087-.05533c.0168-.05217.0568-.09344.1073-.11081l.0536-.00893zm0-2.57042c.075 0 .1388.05005.1615.11966l.009.05541v1.78699c-.0004.07747-.0493.14303-.1168.16616l-.0537.00891h-1.942c-.0749 0-.1385-.05017-.1609-.11975l-.0087-.05535v-1.78696l.0087-.05535c.0168-.05218.0568-.09343.1073-.1108l.0536-.00892z" fill="#2396ed"/></svg>