<svg fill="none" height="24" viewBox="0 0 24 24" width="24" xmlns="http://www.w3.org/2000/svg"><path clip-rule="evenodd" d="m11.9991 2c-5.52137 0-9.9991 4.47566-9.9991 9.9971 0 4.4167 2.86504 8.1633 6.83876 9.4852.50032.092.68265-.2166.68265-.4818 0-.2368-.0086-.8659-.01351-1.6999-2.78154.6039-3.36843-1.3403-3.36843-1.3403-.45489-1.155-1.11053-1.4624-1.11053-1.4624-.90795-.6199.06876-.6076.06876-.6076 1.00371.0706 1.53165 1.0304 1.53165 1.0304.89199 1.5275 2.34078 1.0862 2.91048.8303.09085-.6456.3493-1.0862.63477-1.336-2.22046-.2522-4.55509-1.1101-4.55509-4.9408 0-1.0912.38982-1.98408 1.0295-2.68246-.10314-.25284-.44631-1.26974.09821-2.64563 0 0 .8392-.2688 2.74963 1.02486.79745-.22215 1.65325-.33262 2.50345-.33691.8496.00429 1.7048.11476 2.5035.33691 1.9092-1.29366 2.7471-1.02486 2.7471-1.02486.5458 1.37589.2026 2.39279.1001 2.64563.6409.69838 1.0276 1.59126 1.0276 2.68246 0 3.8405-2.3383 4.6855-4.5655 4.9328.3585.3087.6784.9187.6784 1.8516 0 1.336-.0123 2.4142-.0123 2.7419 0 .2676.1805.5787.6876.4812 3.9706-1.325 6.8332-5.0691 6.8332-9.4846 0-5.52144-4.4777-9.9971-10.0009-9.9971z" fill="#161514" fill-rule="evenodd"/></svg>