<svg height="24" viewBox="0 0 24 24" width="24" xmlns="http://www.w3.org/2000/svg"><path d="m18.27 6c1.01 2.17.78 4.73-.33 6.81-.94 1.69-2.29 3.12-3.44 4.69-.5.7-1 1.45-1.37 2.26-.13.27-.22.55-.32.83s-.19.56-.28.84c-.09.26-.2.57-.53.57-.39 0-.5-.44-.58-.74-.24-.73-.48-1.43-.85-2.1-.42-.79-.95-1.52-1.49-2.23zm-9.15 2.42-3.3 3.92c.61 1.29 1.52 2.39 2.39 3.49.21.25.42.51.62.78l4.17-4.94-.04.01c-1.46.5-3.08-.24-3.66-1.68-.08-.17-.14-.37-.18-.57-.05-.37-.06-.64 0-1zm-2.54-3.8-.01.01c-1.62 2.05-1.9 4.9-.93 7.31l3.99-4.74-.05-.05zm7.64-2.26-3.22 3.81.04-.01c1.34-.46 2.84.12 3.52 1.34.15.28.27.58.31.88.06.38.08.65.01 1.02v.01l3.2-3.8c-.84-1.52-2.21-2.68-3.85-3.24zm-4.33 4.53 3.91-4.65-.04-.01c-.58-.15-1.17-.23-1.76-.23-1.97 0-3.83.85-5.15 2.31l-.02.01z"/></svg>