<?xml version="1.0" encoding="UTF-8"?>
<svg version="1.1" xmlns="http://www.w3.org/2000/svg" width="200" height="200">
<path d="M0 0 C0.99 0 1.98 0 3 0 C2.52013969 5.56890517 1.70084819 10.67067568 0 16 C0.92619141 16.51046875 0.92619141 16.51046875 1.87109375 17.03125 C13.07650675 23.4440891 20.216992 30.43398399 26 42 C27.134375 41.855625 28.26875 41.71125 29.4375 41.5625 C33.95353056 40.99698633 38.47547181 40.49225191 43 40 C42.80078125 41.890625 42.80078125 41.890625 42 44 C39.85546875 45.046875 39.85546875 45.046875 37.1875 45.75 C35.87845703 46.11351563 35.87845703 46.11351563 34.54296875 46.484375 C32 47 32 47 28 47 C28.23976562 48.01513672 28.23976562 48.01513672 28.484375 49.05078125 C30.8991514 62.86257052 28.0822205 74.17931543 21 86 C20.67 86.66 20.34 87.32 20 88 C20.474375 88.78375 20.94875 89.5675 21.4375 90.375 C23.64060281 95.48619852 23.90776291 100.51053607 23 106 C19.48833946 112.32656785 14.18932231 117.15254533 9.125 122.24609375 C8.15373692 123.22633381 7.18254669 124.20664607 6.21142578 125.18702698 C4.1843486 127.23051832 2.152987 129.26964364 0.11914062 131.30639648 C-2.48883812 133.91979233 -5.08022054 136.5490231 -7.6680603 139.18234158 C-9.66362584 141.20758336 -11.67028558 143.22154396 -13.68023682 145.23250008 C-14.64123016 146.19770418 -15.5980947 147.16703721 -16.55072021 148.14050102 C-17.87874129 149.4952715 -19.22414377 150.83293813 -20.5703125 152.16967773 C-21.33102051 152.93545639 -22.09172852 153.70123505 -22.87548828 154.49021912 C-25 156 -25 156 -27.1269989 155.86201477 C-31.58710956 153.80932977 -34.90206087 149.65556216 -38.32885742 146.22705078 C-39.80964782 144.75283951 -41.31276308 143.30428256 -42.81835938 141.85546875 C-43.75099609 140.92863281 -44.68363281 140.00179687 -45.64453125 139.046875 C-46.93387573 137.77602051 -46.93387573 137.77602051 -48.24926758 136.47949219 C-50 134 -50 134 -49.90112305 131.32910156 C-48.80179254 128.48770003 -47.27867877 126.9846557 -45 125 C-46.3761536 121.90820864 -47.95158445 119.80361247 -50.34814453 117.42480469 C-51.02869904 116.74440125 -51.70925354 116.0639978 -52.41043091 115.36297607 C-53.14381683 114.63991272 -53.87720276 113.91684937 -54.6328125 113.171875 C-55.76056595 112.04836639 -55.76056595 112.04836639 -56.91110229 110.90216064 C-59.31107901 108.5133698 -61.71792009 106.13163103 -64.125 103.75 C-65.75436352 102.13066831 -67.38327534 100.51088198 -69.01171875 98.890625 C-73.00258806 94.92179495 -76.99911415 90.95873101 -81 87 C-81.886875 87.825 -82.77375 88.65 -83.6875 89.5 C-85.79234002 91.23172806 -86.8518992 91.96588276 -89.55517578 92.58862305 C-94.59374786 91.37552166 -97.87611919 86.89299273 -101.40429688 83.30249023 C-102.87235765 81.815177 -104.36742581 80.35955744 -105.8671875 78.90429688 C-106.7953125 77.97294922 -107.7234375 77.04160156 -108.6796875 76.08203125 C-109.53288574 75.22843018 -110.38608398 74.3748291 -111.26513672 73.49536133 C-113 71 -113 71 -112.86102295 68.62898254 C-111.79976138 65.38860649 -110.36117259 63.85367755 -107.95849609 61.44091797 C-107.10025238 60.57006561 -106.24200867 59.69921326 -105.35775757 58.80197144 C-104.42243195 57.87474274 -103.48710632 56.94751404 -102.5234375 55.9921875 C-101.55455991 55.02061308 -100.58627657 54.04844573 -99.61856079 53.07571411 C-97.5888992 51.04016089 -95.55219525 49.01200201 -93.51025391 46.98876953 C-90.90420337 44.40544736 -88.31644483 41.80466357 -85.73377037 39.19799614 C-83.73689721 37.18660391 -81.73051335 35.18491608 -79.72121048 33.18594742 C-78.30072221 31.76939658 -76.88823555 30.34483638 -75.47592163 28.9201355 C-70.27726244 23.79620416 -66.12778984 19.91921716 -58.77734375 18.6015625 C-54.0381858 18.66193394 -51.14776737 19.88003001 -47 22 C-42.33288048 21.49253725 -38.76839326 19.4476073 -34.6953125 17.25390625 C-28.72921963 14.47837609 -23.34028618 13.69639373 -16.875 13.8125 C-16.18535156 13.81314453 -15.49570313 13.81378906 -14.78515625 13.81445312 C-11.07256495 13.84639703 -7.60966947 14.12216209 -4 15 C-3.896875 13.824375 -3.79375 12.64875 -3.6875 11.4375 C-3.17085042 7.17514097 -1.8491639 3.85912466 0 0 Z M-18 27 C-18.66 28.32 -19.32 29.64 -20 31 C-19.01 31.99 -18.02 32.98 -17 34 C-16.01 33.67 -15.02 33.34 -14 33 C-13.67 32.01 -13.34 31.02 -13 30 C-13.66 29.01 -14.32 28.02 -15 27 C-15.99 27 -16.98 27 -18 27 Z M10.375 57.5 C9.92125 57.995 9.4675 58.49 9 59 C9.33 59.99 9.66 60.98 10 62 C10.99 62.33 11.98 62.66 13 63 C13.99 62.01 14.98 61.02 16 60 C15.34 58.68 14.68 57.36 14 56 C11.87635519 55.77390663 11.87635519 55.77390663 10.375 57.5 Z " fill="#3BD680" transform="translate(154,3)"/>
<path d="M0 0 C4.51690977 3.01127318 7.66345908 6.84794834 9.8125 11.875 C10.18359375 13.953125 10.18359375 13.953125 10.25 16.125 C10.30994141 17.18460938 10.30994141 17.18460938 10.37109375 18.265625 C8.69202037 26.10912862 2.18547264 31.89834638 -3.33984375 37.28515625 C-4.50647301 38.44186073 -4.50647301 38.44186073 -5.69667053 39.62193298 C-8.1657148 42.06773038 -10.64473348 44.50308836 -13.125 46.9375 C-15.59992841 49.37719296 -18.07263195 51.8190819 -20.5426178 54.26377869 C-22.07422132 55.77860506 -23.60890864 57.29032219 -25.14720154 58.7983551 C-28.43849266 62.04403354 -31.53147947 65.25902836 -34.39282227 68.89233398 C-36.28618032 71.1278221 -36.85087761 71.78098631 -39.74267578 72.58862305 C-44.75123835 71.12666695 -48.02277741 66.80955597 -51.59179688 63.17749023 C-53.05985765 61.690177 -54.55492581 60.23455744 -56.0546875 58.77929688 C-56.9828125 57.84794922 -57.9109375 56.91660156 -58.8671875 55.95703125 C-60.14698486 54.67662964 -60.14698486 54.67662964 -61.45263672 53.37036133 C-63.1875 50.875 -63.1875 50.875 -63.04852295 48.50398254 C-61.98726138 45.26360649 -60.54867259 43.72867755 -58.14599609 41.31591797 C-57.28775238 40.44506561 -56.42950867 39.57421326 -55.54525757 38.67697144 C-54.60993195 37.74974274 -53.67460632 36.82251404 -52.7109375 35.8671875 C-51.74205991 34.89561308 -50.77377657 33.92344573 -49.80606079 32.95071411 C-47.7763992 30.91516089 -45.73969525 28.88700201 -43.69775391 26.86376953 C-41.09170337 24.28044736 -38.50394483 21.67966357 -35.92127037 19.07299614 C-33.92439721 17.06160391 -31.91801335 15.05991608 -29.90871048 13.06094742 C-28.48822221 11.64439658 -27.07573555 10.21983638 -25.66342163 8.7951355 C-18.02115526 1.26272248 -11.0230538 -3.89048958 0 0 Z " fill="#4081ED" transform="translate(104.1875,23.125)"/>
<path d="M0 0 C3.87118077 1.75448251 6.63218312 3.35976493 9.359375 6.6484375 C10.85957127 12.54206569 11.86821082 19.14243739 8.82055664 24.63305664 C5.28944719 29.71468172 0.70637781 33.95994197 -3.640625 38.33203125 C-4.61188808 39.31227131 -5.58307831 40.29258357 -6.55419922 41.27296448 C-8.5812764 43.31645582 -10.612638 45.35558114 -12.64648438 47.39233398 C-15.25446312 50.00572983 -17.84584554 52.6349606 -20.4336853 55.26827908 C-22.42925084 57.29352086 -24.43591058 59.30748146 -26.44586182 61.31843758 C-27.40685516 62.28364168 -28.3637197 63.25297471 -29.31634521 64.22643852 C-30.64436629 65.581209 -31.98976877 66.91887563 -33.3359375 68.25561523 C-34.09664551 69.02139389 -34.85735352 69.78717255 -35.64111328 70.57615662 C-37.765625 72.0859375 -37.765625 72.0859375 -39.89361572 71.94894409 C-44.34560277 69.89655353 -47.63301059 65.69483915 -51.03955078 62.25805664 C-52.51248698 60.77659369 -54.00313542 59.31476641 -55.49609375 57.85351562 C-56.42550781 56.92345703 -57.35492188 55.99339844 -58.3125 55.03515625 C-59.16682617 54.18268311 -60.02115234 53.33020996 -60.90136719 52.4519043 C-62.765625 50.0859375 -62.765625 50.0859375 -62.765625 46.0859375 C-60.50488281 44.59790039 -60.50488281 44.59790039 -57.765625 43.0859375 C-55.80432286 41.15713282 -55.80432286 41.15713282 -53.9375 38.89453125 C-47.94816113 32.06534515 -41.53823672 25.67249367 -35.11669922 19.25170898 C-33.00069101 17.13348789 -30.89284998 15.00735001 -28.78515625 12.88085938 C-27.43017644 11.52294944 -26.07472463 10.16551029 -24.71875 8.80859375 C-23.78267914 7.86174461 -23.78267914 7.86174461 -22.82769775 6.89576721 C-15.84669212 -0.04890999 -9.85673667 -3.257735 0 0 Z " fill="#4082EE" transform="translate(166.765625,86.9140625)"/>
<path d="M0 0 C4.16986535 3.69601701 7.24359748 7.34175628 8.1640625 12.96875 C8.33628978 18.16688242 7.84177622 22.12775133 4.75 26.4375 C-4.16936559 35.92410594 -16.75861374 44.37716341 -30.0625 44.8125 C-34.72784647 44.85198107 -34.72784647 44.85198107 -37.01171875 43.0390625 C-39.29529606 40.0855398 -39.65039868 37.62593011 -39.58984375 33.8984375 C-38.06368705 22.84695796 -30.48311851 10.71399233 -23.25 2.4375 C-15.92986381 -3.02049628 -8.22648182 -3.95503934 0 0 Z M-22.90136719 19.33789062 C-27.11923971 26.49160789 -27.11923971 26.49160789 -29.25 34.4375 C-19.78118294 33.32853944 -10.47801808 27.70036243 -3.59375 21.1953125 C-1.95462759 19.30544354 -1.95462759 19.30544354 -1.4375 15.8125 C-2.45401068 11.59007103 -3.76347937 9.99428179 -7.25 7.4375 C-14.89294291 5.22506916 -19.63130163 13.74754966 -22.90136719 19.33789062 Z " fill="#062B3B" transform="translate(42.25,88.5625)"/>
<path d="M0 0 C4.50665768 2.13473258 7.1741532 4.91822129 10 9 C11.74253853 14.22761559 12.02349887 19.98694464 10.234375 25.25390625 C4.38824655 35.77282048 -9.89696092 42.3425517 -20.90625 45.953125 C-25.74210332 47.08925921 -29.48027097 47.48585097 -34 45 C-36.10984998 42.41063866 -36.49419174 39.54278426 -36.3671875 36.2265625 C-34.4403519 24.54255936 -27.04259977 11.02399625 -18.0625 3.1875 C-12.28947555 -0.93608889 -6.96942385 -0.61120404 0 0 Z M-13.50585938 12.43115234 C-16.06143461 15.11450634 -17.89684646 18.11952291 -19.75 21.3125 C-20.13542969 21.93833984 -20.52085938 22.56417969 -20.91796875 23.20898438 C-23.5857292 27.70909933 -24.93178023 31.88049991 -26 37 C-15.98993911 33.88274699 -5.75378491 29.32966805 1 21 C2.1576585 19.12042756 2.1576585 19.12042756 2 17 C0.78516616 13.80306883 -0.11490143 11.62813447 -2.9375 9.625 C-7.67679605 8.18884968 -9.96709696 9.26740972 -13.50585938 12.43115234 Z " fill="#062B3B" transform="translate(102,150)"/>
<path d="M0 0 C1.6015625 1.0703125 1.6015625 1.0703125 2.6015625 3.0703125 C1.6734375 2.8228125 1.6734375 2.8228125 0.7265625 2.5703125 C-1.94168945 2.14339219 -4.51648077 1.80303242 -7.2109375 1.6328125 C-8.00113281 1.57222656 -8.79132813 1.51164062 -9.60546875 1.44921875 C-17.12494262 3.12138147 -23.20102797 10.58760239 -28.44140625 15.8828125 C-29.17289383 16.6147583 -29.90438141 17.3467041 -30.65803528 18.10083008 C-32.19229258 19.63808888 -33.72413876 21.17775756 -35.25366211 22.71972656 C-37.58458699 25.06895139 -39.92345831 27.41003171 -42.26367188 29.75 C-43.76088976 31.25213277 -45.25765033 32.75472153 -46.75390625 34.2578125 C-47.44671188 34.95173096 -48.13951752 35.64564941 -48.85331726 36.3605957 C-52.57738362 40.12096269 -56.0790715 43.94745395 -59.3984375 48.0703125 C-60.0584375 47.7403125 -60.7184375 47.4103125 -61.3984375 47.0703125 C-60.0784375 45.7503125 -58.7584375 44.4303125 -57.3984375 43.0703125 C-58.0584375 41.4203125 -58.7184375 39.7703125 -59.3984375 38.0703125 C-58.66392868 37.44483269 -58.66392868 37.44483269 -57.9145813 36.80671692 C-52.98724889 32.56054065 -48.3626057 28.11701576 -43.828125 23.45703125 C-42.42361902 22.03016381 -41.01865781 20.60374435 -39.61328125 19.17773438 C-37.43195961 16.9591947 -35.25391215 14.7377582 -33.08349609 12.50854492 C-30.96580893 10.33638119 -28.83563835 8.17712799 -26.703125 6.01953125 C-26.05922821 5.35185226 -25.41533142 4.68417328 -24.75192261 3.9962616 C-17.26437887 -3.53429989 -9.52129086 -4.962835 0 0 Z " fill="#35B86F" transform="translate(166.3984375,84.9296875)"/>
<path d="M0 0 C0.66 0 1.32 0 2 0 C5.57076421 3.98277547 5.35518687 8.11606151 5.3984375 13.18359375 C4.32391716 20.77897771 -0.86614234 25.25117933 -6.09765625 30.35546875 C-6.88772568 31.13892166 -7.6777951 31.92237457 -8.49180603 32.72956848 C-11.00834806 35.2227702 -13.53485338 37.70556128 -16.0625 40.1875 C-18.59194373 42.68186929 -21.11922825 45.17837313 -23.64390564 47.67756653 C-25.21330119 49.22999759 -26.78576718 50.77933203 -28.36158752 52.32524109 C-29.07250046 53.02639542 -29.78341339 53.72754974 -30.51586914 54.44995117 C-31.14191544 55.06472824 -31.76796173 55.67950531 -32.41297913 56.31291199 C-34.19760405 58.11649806 -34.19760405 58.11649806 -36 61 C-37.32 59.35 -38.64 57.7 -40 56 C-39.53059494 55.53725677 -39.06118988 55.07451355 -38.57756042 54.5977478 C-33.68574307 49.77239144 -28.80458986 44.9364357 -23.92944336 40.09423828 C-22.10955786 38.28942262 -20.28698667 36.48731082 -18.46166992 34.68798828 C-15.83579144 32.0985704 -13.21978094 29.49952605 -10.60546875 26.8984375 C-9.78974899 26.0982016 -8.97402924 25.2979657 -8.1335907 24.47348022 C-1.62156856 18.04140513 -1.62156856 18.04140513 1.328125 9.55078125 C1.30234375 8.81214844 1.2765625 8.07351562 1.25 7.3125 C1.23453125 6.56613281 1.2190625 5.81976563 1.203125 5.05078125 C1.05666607 2.80136379 1.05666607 2.80136379 0 0 Z " fill="#36BB70" transform="translate(112,32)"/>
</svg>
