<?xml version="1.0" encoding="UTF-8"?>
<svg version="1.1" xmlns="http://www.w3.org/2000/svg" width="1280" height="1280">
<path d="M0 0 C16.76856267 14.27426207 27.0714854 34.65060939 28.9765625 56.5703125 C29.11895037 60.78478765 29.11256234 64.99643241 29.10519695 69.21299934 C29.10694999 70.48262764 29.10870303 71.75225593 29.11050919 73.06035781 C29.11522888 76.58394313 29.11374086 80.10750255 29.11123142 83.63108913 C29.10959643 87.46482319 29.11374077 91.29855175 29.11714059 95.13228405 C29.12229293 101.85143262 29.12371208 108.57057399 29.12268448 115.28972435 C29.12116009 125.28160335 29.12532013 135.27347437 29.1305591 145.26535181 C29.14023379 164.149572 29.1430434 183.03378948 29.14361616 201.91801186 C29.1440756 216.50151313 29.14613337 231.08501333 29.14931679 245.66851425 C29.15021433 249.86544923 29.15110414 254.06238421 29.15199167 258.25931919 C29.15232324 259.82435371 29.15232324 259.82435371 29.15266151 261.4210051 C29.15881643 290.77214094 29.162762 320.12327641 29.16231823 349.47441292 C29.16229486 351.13458464 29.16229486 351.13458464 29.16227102 352.82829519 C29.16218791 358.43799251 29.16208887 364.04768983 29.16198631 369.65738715 C29.16196637 370.77150348 29.16194642 371.88561981 29.16192587 373.03349724 C29.16188544 375.28651286 29.16184364 377.53952848 29.16180048 379.7925441 C29.16118776 414.84379657 29.16869339 449.89503936 29.18237305 484.94628906 C29.197734 524.32177804 29.20633925 563.69726067 29.20540982 603.07275283 C29.20533519 607.27157394 29.20528649 611.47039505 29.20525551 615.66921616 C29.20524385 616.70307994 29.2052322 617.73694373 29.20522019 618.80213672 C29.20518942 635.43922947 29.21157514 652.07631383 29.22018777 668.71340409 C29.22866515 685.43513064 29.22965354 702.15684491 29.22307845 718.87857242 C29.21938332 728.81150574 29.22121408 738.74440174 29.23102079 748.67733111 C29.23702099 755.3159314 29.23572486 761.95450465 29.22855029 768.5931037 C29.22466914 772.37316635 29.22389213 776.15315677 29.23200765 779.93321432 C29.24068981 784.01305883 29.23377261 788.09273358 29.22545147 792.17257881 C29.23290374 793.91646346 29.23290374 793.91646346 29.24050656 795.6955781 C29.14922715 816.88879956 23.77262364 836.20552867 9.9765625 852.5703125 C9.38101562 853.31152344 8.78546875 854.05273438 8.171875 854.81640625 C-4.82763202 870.37805677 -24.6775239 880.49329414 -44.86328125 882.44140625 C-60.53418888 883.37655987 -74.7061016 881.04100457 -89.0234375 874.5703125 C-89.93351563 874.16296875 -90.84359375 873.755625 -91.78125 873.3359375 C-110.79172507 863.91383615 -124.70563974 846.36443729 -131.73925781 826.55419922 C-135.52766078 814.70889315 -136.17386821 803.09823474 -136.15207195 790.74399948 C-136.15382499 789.47881699 -136.15557803 788.21363451 -136.15738419 786.91011316 C-136.16209156 783.40832057 -136.1606199 779.90655414 -136.15810642 776.40476031 C-136.15646824 772.59117335 -136.1606184 768.77759186 -136.16401559 764.96400666 C-136.16916276 758.28333307 -136.17058798 751.60266673 -136.16955948 744.92199135 C-136.16803377 734.98735603 -136.17219803 725.05272873 -136.1774341 715.11809497 C-136.18710367 696.3419721 -136.18991819 677.56585195 -136.19049116 658.78972688 C-136.19095074 644.29017888 -136.19300924 629.79063195 -136.19619179 615.29108429 C-136.19708933 611.11714308 -136.19797915 606.94320186 -136.19886667 602.76926064 C-136.19908771 601.73160365 -136.19930876 600.69394666 -136.19953651 599.62484552 C-136.20569043 570.43874879 -136.2096371 541.25265243 -136.20919323 512.06655502 C-136.20917765 510.96623735 -136.20916207 509.86591967 -136.20914602 508.73225904 C-136.20906291 503.15540957 -136.20896387 497.57856009 -136.20886131 492.00171062 C-136.20884137 490.89413073 -136.20882142 489.78655084 -136.20880087 488.64540793 C-136.20876044 486.405612 -136.20871864 484.16581606 -136.20867548 481.92602013 C-136.20806268 447.07583868 -136.21557028 412.22566695 -136.22924805 377.37548828 C-136.24460903 338.22045768 -136.25321427 299.06543348 -136.25228482 259.91039968 C-136.25221019 255.73520104 -136.25216149 251.56000241 -136.25213051 247.38480377 C-136.25211885 246.35676559 -136.2521072 245.32872741 -136.25209519 244.26953655 C-136.25206442 227.72739667 -136.25844963 211.18526524 -136.26706277 194.64312787 C-136.2755401 178.01798323 -136.27652856 161.39285095 -136.26995345 144.76770535 C-136.26625844 134.89252811 -136.26808874 125.01738842 -136.27789579 115.14221516 C-136.28389622 108.54218435 -136.28259961 101.94218073 -136.27542529 95.34215117 C-136.27154436 91.58415279 -136.27076649 87.82622707 -136.27888265 84.06823382 C-136.28756574 80.01209591 -136.28064712 75.95612873 -136.27232647 71.89999008 C-136.27729465 70.74438939 -136.28226283 69.58878871 -136.28738156 68.39816982 C-136.1819725 44.06291866 -128.93381 22.36646642 -112.0234375 4.5703125 C-80.78827072 -25.62968305 -33.58697225 -26.99108106 0 0 Z " fill="#0097A7" transform="translate(1062.0234375,208.4296875)"/>
<path d="M0 0 C12.30666588 10.41245314 21.89361997 21.61904814 27.68994141 36.75585938 C27.93631348 37.39595947 28.18268555 38.03605957 28.43652344 38.69555664 C31.45564938 46.96529104 32.74269769 55.18544475 32.69721031 63.96617985 C32.70071639 64.84044922 32.70422246 65.7147186 32.70783478 66.61548099 C32.71709938 69.52953103 32.71223826 72.44337905 32.70736694 75.35743713 C32.7111057 77.47410094 32.71570812 79.59076338 32.72109759 81.70742363 C32.73331527 87.51243451 32.73306856 93.31738771 32.73070884 99.12240851 C32.73030036 105.38779245 32.74134287 111.65315798 32.75082397 117.91853333 C32.7674286 130.18989432 32.77295924 142.46122909 32.77404873 154.73259903 C32.77496874 164.70981158 32.77909023 174.68701791 32.78544998 184.66422844 C32.78724515 187.53891481 32.78902478 190.41360119 32.79079974 193.28828758 C32.79146288 194.36035954 32.79146288 194.36035954 32.79213942 195.45408952 C32.80444422 215.55212589 32.81234093 235.65016011 32.81145287 255.74820042 C32.81140613 256.88430237 32.81140613 256.88430237 32.81135845 258.04335587 C32.81119224 261.88193857 32.81099416 265.72052127 32.81078903 269.55910397 C32.81074914 270.32142121 32.81070925 271.08373844 32.81066815 271.8691562 C32.81058728 273.41074765 32.81050368 274.95233911 32.81041737 276.49393056 C32.80919237 300.4687156 32.82419723 324.44344404 32.8515625 348.41821289 C32.88231583 375.3721879 32.899493 402.32612571 32.89763606 429.28011936 C32.8974868 432.15700622 32.89738938 435.03389309 32.89732742 437.91077995 C32.89730411 438.61910811 32.89728081 439.32743626 32.89725679 440.0572289 C32.89719537 451.4326411 32.90994131 462.80800396 32.92719195 474.18340151 C32.94418577 485.6265434 32.94575137 497.06958824 32.93297331 508.51274062 C32.92645246 514.70622107 32.92629477 520.89952363 32.94367981 527.09298706 C32.9594544 532.77130057 32.95650192 538.44929578 32.93911155 544.12760174 C32.93605131 546.17335362 32.93963685 548.21912952 32.9508317 550.26485307 C33.02792259 565.36146794 32.12305666 580.58859342 24.68994141 594.13085938 C24.35140137 594.77732422 24.01286133 595.42378906 23.6640625 596.08984375 C20.49844212 601.9748939 16.92707047 607.78420464 12.43994141 612.75585938 C11.77994141 612.75585938 11.11994141 612.75585938 10.43994141 612.75585938 C10.21306641 613.325625 9.98619141 613.89539063 9.75244141 614.48242188 C2.55110928 626.95615788 -15.82044538 633.85024684 -28.83349609 637.73242188 C-50.61983671 643.16631103 -72.16289961 639.31122272 -91.62255859 628.50585938 C-111.04923312 616.70295151 -124.05572373 598.87084271 -129.86865234 576.97460938 C-131.2395325 570.5926588 -131.70641009 564.47742903 -131.69427967 557.97994518 C-131.6966319 557.11619043 -131.69898413 556.25243568 -131.70140764 555.36250654 C-131.7080682 552.46620156 -131.70764031 549.56994174 -131.70722961 546.67362976 C-131.71053008 544.57676797 -131.71425603 542.4799068 -131.71837109 540.38304645 C-131.72837854 534.61880935 -131.73210587 528.85458266 -131.7347604 523.09033811 C-131.7386672 516.87396705 -131.7482453 510.65760421 -131.75697327 504.4412384 C-131.77579376 490.13688048 -131.78599239 475.83252445 -131.79443395 461.52815742 C-131.79864402 454.45475899 -131.80386556 447.3813614 -131.80911848 440.30796367 C-131.82700791 416.08075453 -131.84200207 391.85354514 -131.84943867 367.62633038 C-131.84991342 366.10591848 -131.85038931 364.58550659 -131.85086633 363.0650947 C-131.85110271 362.31112915 -131.85133908 361.5571636 -131.85158262 360.78035061 C-131.85278378 356.96058204 -131.85399924 353.14081348 -131.85522461 349.32104492 C-131.85546476 348.56300902 -131.85570491 347.80497311 -131.85595234 347.02396642 C-131.86384082 322.46061783 -131.88726372 297.8973176 -131.91978055 273.33399013 C-131.95411965 247.34651403 -131.97379363 221.35906622 -131.97708291 195.37156707 C-131.97750042 192.51567923 -131.97797998 189.6597914 -131.97850609 186.80390358 C-131.97862928 186.10073595 -131.97875247 185.39756832 -131.9788794 184.67309258 C-131.98120644 173.38232366 -131.99683874 162.09161113 -132.01734793 150.80086226 C-132.03765771 139.43911929 -132.04272696 128.07746296 -132.0335773 116.71569826 C-132.02903991 110.56666651 -132.03088647 104.41781692 -132.05033875 98.26881027 C-132.06802294 92.62980544 -132.06692996 86.99111496 -132.05144145 81.35210655 C-132.04907336 79.32172248 -132.05334698 77.29131634 -132.0652701 75.26096591 C-132.14905122 60.04047522 -131.40538502 43.94674347 -123.81005859 30.31835938 C-123.46571777 29.66915527 -123.12137695 29.01995117 -122.76660156 28.35107422 C-112.09561644 8.73179597 -95.80883593 -5.69350619 -74.5546875 -12.65820312 C-49.57740673 -19.99547042 -20.77195863 -16.56555574 0 0 Z " fill="#0097A7" transform="translate(566.56005859375,205.244140625)"/>
<path d="M0 0 C18.5422378 14.58933437 30.93243826 34.49718852 33.78515625 58.19140625 C34.29400321 65.20055658 34.19141111 72.23290017 34.16610718 79.25585938 C34.1695693 81.36176546 34.17433757 83.46766973 34.18028891 85.57357025 C34.1927523 91.32557336 34.18664978 97.07742615 34.17733026 102.82942963 C34.17052095 109.04629 34.18103031 115.26312516 34.18927002 121.47998047 C34.20182078 132.94297079 34.20075911 144.40589451 34.19253561 155.86888444 C34.18497507 166.46036491 34.1830253 177.05182794 34.18660355 187.64331055 C34.1868327 188.34713944 34.18706186 189.05096833 34.18729796 189.77612537 C34.18823204 192.63353018 34.18918725 195.49093498 34.19017725 198.34833977 C34.19934466 225.1275517 34.19104909 251.90673336 34.17488656 278.68594062 C34.16065081 302.45340372 34.16192473 326.22081858 34.17626953 349.98828125 C34.19234963 376.71997059 34.19869439 403.45163321 34.18943274 430.18332672 C34.18847066 433.03538513 34.18753213 435.88744354 34.18660355 438.73950195 C34.18636631 439.44169985 34.18612908 440.14389774 34.18588466 440.86737436 C34.18247893 451.44959482 34.18645057 462.0317959 34.19404221 472.61401367 C34.20263545 484.65209194 34.20015503 496.6901009 34.18419997 508.72817707 C34.17633141 514.86673014 34.17320161 521.00518551 34.18314743 527.14373779 C34.19212402 532.76927808 34.18711268 538.3946306 34.17121477 544.020154 C34.16787951 546.04889396 34.16953257 548.07764997 34.17684214 550.10637951 C34.26472341 576.53661221 28.1540628 598.29504924 9.59765625 617.94140625 C-6.41342067 633.23989004 -26.75412988 640.91305998 -48.77734375 641.56640625 C-70.62713577 640.93900898 -91.43641709 632.4055115 -107.21484375 617.19140625 C-121.49095459 601.83207911 -130.38798348 582.59542415 -130.34906483 561.45486641 C-130.35141706 560.58322444 -130.35376929 559.71158247 -130.3561928 558.81352711 C-130.36286494 555.88439006 -130.36242511 552.95529756 -130.36201477 550.02615356 C-130.36531451 547.90810544 -130.36904031 545.79005795 -130.37315625 543.67201126 C-130.38317192 537.84464572 -130.38689235 532.01729049 -130.38954556 526.18991756 C-130.39344991 519.90744527 -130.40302819 513.62498113 -130.41175842 507.34251404 C-130.43058542 492.8838045 -130.44077858 478.42509597 -130.4492191 463.96637723 C-130.45342795 456.81813421 -130.45864966 449.66989204 -130.46390363 442.52164973 C-130.48179364 418.04264414 -130.49678829 393.5636383 -130.50422382 369.08462715 C-130.50469858 367.54817859 -130.50517447 366.01173003 -130.50565149 364.47528147 C-130.50588786 363.71335599 -130.50612424 362.95143051 -130.50636778 362.16641638 C-130.50756895 358.30625675 -130.50878441 354.44609712 -130.51000977 350.5859375 C-130.51024992 349.81988298 -130.51049007 349.05382845 -130.51073749 348.26456015 C-130.51862702 323.43804017 -130.5420518 298.611568 -130.57456571 273.78506889 C-130.6088942 247.52496823 -130.6285778 221.26489554 -130.63186806 195.00477207 C-130.63228559 192.11969621 -130.63276515 189.23462037 -130.63329124 186.34954453 C-130.63341444 185.6391798 -130.63353763 184.92881507 -130.63366455 184.19692414 C-130.63599292 172.78389743 -130.65163261 161.37092644 -130.67213309 149.95791956 C-130.69242904 138.47622456 -130.69751825 126.9946209 -130.68836246 115.51290663 C-130.683821 109.29729659 -130.6856954 103.08186677 -130.7051239 96.86628151 C-130.72277886 91.16874566 -130.72173861 85.47152118 -130.70622661 79.77398191 C-130.70385411 77.72005058 -130.70815532 75.66609755 -130.72005526 73.61219932 C-130.80173001 58.57597306 -129.71264634 44.27695658 -122.40234375 30.75390625 C-122.0576001 30.09197266 -121.71285645 29.43003906 -121.35766602 28.74804688 C-118.51061754 23.42607045 -115.19095629 18.73553487 -111.21484375 14.19140625 C-110.69664062 13.53140625 -110.1784375 12.87140625 -109.64453125 12.19140625 C-83.09384685 -20.64422277 -33.34853005 -22.48385058 0 0 Z " fill="#0097A7" transform="translate(811.21484375,449.80859375)"/>
<path d="M0 0 C0.92167969 0.48984375 1.84335937 0.9796875 2.79296875 1.484375 C20.51973383 11.81859302 33.43480413 29.69572903 38.9296875 49.3203125 C41.31349408 59.10527094 42.15012752 68.53807479 42.13371277 78.58621216 C42.13597833 79.61645724 42.13824388 80.64670233 42.14057809 81.70816696 C42.14688054 85.14155648 42.14609114 88.57490614 42.14526367 92.00830078 C42.14825754 94.47787019 42.1516606 96.94743912 42.15544128 99.41700745 C42.1633477 105.41863069 42.16649499 111.42023841 42.16705366 117.42186542 C42.16753012 122.30520005 42.16959135 127.18853147 42.17275429 132.07186508 C42.18155465 145.94310312 42.18617474 159.81433345 42.18542381 173.68557431 C42.18538386 174.43225471 42.1853439 175.17893511 42.18530273 175.94824219 C42.18526185 176.69584355 42.18522097 177.44344492 42.18517885 178.21370088 C42.18477277 190.31804593 42.19433442 202.42235982 42.2084411 214.52669586 C42.22283999 226.9809221 42.22970933 239.43513317 42.22884732 251.88936794 C42.22851652 258.8711147 42.23121211 265.8528288 42.24202538 272.83456802 C42.25213839 279.40588177 42.25175927 285.97713867 42.24450874 292.54846001 C42.2434676 294.95132867 42.24579763 297.3542017 42.2518692 299.75706291 C42.32091122 328.98969116 38.41256916 354.55021121 17.49169922 376.51123047 C3.61530178 390.36037476 -15.41963273 398.91036742 -35 400 C-36.31677734 400.07927734 -36.31677734 400.07927734 -37.66015625 400.16015625 C-60.83390327 400.87751316 -81.8049808 391.99298769 -98.6965332 376.42138672 C-115.2123237 360.42214171 -122.86415067 338.44657438 -123.23361361 315.83595705 C-123.28264518 310.26064426 -123.28104017 304.68583266 -123.2746582 299.11035156 C-123.27901077 296.59417571 -123.28419574 294.07800119 -123.29014587 291.56182861 C-123.30210652 285.46114173 -123.30469426 279.3605156 -123.30234561 273.2598193 C-123.30055515 268.29507223 -123.30232762 263.33033844 -123.30657005 258.36559296 C-123.30716524 257.65621941 -123.30776043 256.94684587 -123.30837366 256.21597616 C-123.30958554 254.77438754 -123.31079968 253.33279891 -123.31201603 251.89121029 C-123.32286812 238.40123434 -123.32074032 224.91128345 -123.31463119 211.4213061 C-123.30946566 199.11485265 -123.32071201 186.80847844 -123.33972941 174.50204065 C-123.35916214 161.82845046 -123.36735421 149.15489765 -123.36360615 136.48129249 C-123.36170213 129.38103866 -123.36410302 122.28085223 -123.37832069 115.18061066 C-123.39156561 108.49921194 -123.38890112 101.8179964 -123.37590981 95.13658905 C-123.37355678 92.69585617 -123.37623255 90.25511199 -123.38453293 87.81439209 C-123.4717474 60.15722002 -119.81313003 35.41124967 -99.75390625 14.75390625 C-72.84725626 -12.15274374 -33.73414794 -18.02654858 0 0 Z " fill="#0097A7" transform="translate(312,691)"/>
<path d="M0 0 C0.91007812 0.40734375 1.82015625 0.8146875 2.7578125 1.234375 C21.74803884 10.64644053 35.73500555 28.21356964 42.71582031 48.03222656 C46.13288367 58.81880905 47.15211196 69.3246882 47.13371277 80.57948303 C47.13597833 81.60902255 47.13824388 82.63856207 47.14057809 83.69929975 C47.14688053 87.1303553 47.14609114 90.56137096 47.14526367 93.99243164 C47.14825756 96.46037853 47.15166062 98.92832495 47.15544128 101.39627075 C47.1633479 107.39421899 47.16649501 113.3921517 47.16705366 119.39010371 C47.16753016 124.27104607 47.16959156 129.15198521 47.17275429 134.03292656 C47.18155509 147.89909894 47.18617473 161.76526361 47.18542381 175.6314388 C47.18538386 176.37785648 47.1853439 177.12427415 47.18530273 177.89331055 C47.18526185 178.6406496 47.18522097 179.38798866 47.18517885 180.15797435 C47.18477286 192.25517733 47.19433203 204.35234911 47.2084411 216.44954307 C47.2228443 228.89812407 47.22970908 241.3466899 47.22884732 253.79527944 C47.22851665 260.7731457 47.23120661 267.75097927 47.24202538 274.72883797 C47.25214537 281.2976925 47.25175491 287.86649019 47.24450874 294.43535233 C47.24346836 296.83618839 47.24579302 299.23702884 47.2518692 301.63785744 C47.31936223 330.17107696 44.57587807 356.06724624 23.72265625 377.3125 C22.82417969 378.199375 21.92570313 379.08625 21 380 C20.23558594 380.763125 19.47117187 381.52625 18.68359375 382.3125 C2.40070356 397.69240344 -19.55645662 402.87796398 -41.3203125 402.3515625 C-48.94842865 401.99777266 -55.7681455 400.45366492 -63 398 C-64.051875 397.649375 -65.10375 397.29875 -66.1875 396.9375 C-86.10191138 389.46959573 -101.2285847 373.62073953 -110.55859375 354.8671875 C-116.18746274 342.07278498 -118.15282789 329.21166219 -118.14044189 315.35095215 C-118.14341302 314.30184929 -118.14638414 313.25274644 -118.1494453 312.17185259 C-118.15809282 308.66859668 -118.15963721 305.1653751 -118.16113281 301.66210938 C-118.16576383 299.14504931 -118.17078887 296.62798995 -118.17617798 294.1109314 C-118.18927783 287.2799699 -118.19577971 280.44901963 -118.20018864 273.61804771 C-118.20295852 269.34571078 -118.20719725 265.07337607 -118.21169281 260.80104065 C-118.2238808 248.95232028 -118.23418054 237.10360169 -118.2375679 225.25487518 C-118.23778747 224.49753744 -118.23800703 223.7401997 -118.23823325 222.95991233 C-118.23845153 222.2008479 -118.23866981 221.44178347 -118.2388947 220.65971708 C-118.23933815 219.12177753 -118.23978472 217.58383799 -118.24023438 216.04589844 C-118.2404558 215.28304081 -118.24067723 214.52018317 -118.24090537 213.73420864 C-118.24484891 201.38796689 -118.26229145 189.04178432 -118.2855939 176.6955654 C-118.30937198 163.99389315 -118.32177271 151.29225051 -118.32293582 138.59055567 C-118.32384904 131.46957325 -118.32951167 124.34866794 -118.34775543 117.22770691 C-118.3648722 110.52340527 -118.36636107 103.81927413 -118.35761642 97.11494827 C-118.35684938 94.66412082 -118.36114445 92.21328533 -118.37107468 89.76247787 C-118.48100925 60.92223838 -113.63107231 35.87225124 -92.5859375 14.5546875 C-67.1965234 -9.22270031 -31.49752516 -14.23524514 0 0 Z " fill="#0097A7" transform="translate(307,197)"/>
<path d="M0 0 C0.75539063 0.66386719 1.51078125 1.32773437 2.2890625 2.01171875 C16.91906225 15.61108278 26.3134749 35.68417901 27.38671875 55.578125 C27.73755897 67.31080674 26.77939774 77.86072245 23 89 C22.649375 90.051875 22.29875 91.10375 21.9375 92.1875 C14.46959573 112.10191138 -1.37926047 127.2285847 -20.1328125 136.55859375 C-40.49064266 145.51497595 -62.97478459 146.677068 -83.90356445 138.99975586 C-105.7156104 130.43283003 -121.65424644 114.19132186 -131.15869141 92.99414062 C-139.57666384 73.04115199 -138.97108465 51.40908267 -131.6875 31.25 C-127.64531069 21.32498161 -121.96204533 13.10404091 -115 5 C-114.49210937 4.39542969 -113.98421875 3.79085937 -113.4609375 3.16796875 C-101.96518442 -9.41840706 -84.67578889 -17.41922315 -68 -20 C-66.700625 -20.226875 -65.40125 -20.45375 -64.0625 -20.6875 C-40.7331962 -22.88607313 -17.33326822 -15.90403383 0 0 Z " fill="#0097A7" transform="translate(572,947)"/>
<path d="M0 0 C22.7280492 -0.70928783 43.60514269 7.38324796 60.16381836 22.91210938 C75.65154605 37.89058903 85.31574993 58.02906683 85.68334961 79.76831055 C85.76528358 104.09276736 77.7497897 124.18316622 61.19140625 141.97265625 C44.74934936 157.54629464 22.91447883 165.41140135 0.44140625 165.16015625 C-22.17142473 164.25150784 -40.86833414 154.98784879 -56.55859375 139.16015625 C-57.28691406 138.46535156 -58.01523437 137.77054688 -58.765625 137.0546875 C-73.63889142 121.88806277 -78.83386363 100.75435411 -78.87768555 80.19213867 C-78.76908502 71.27778665 -77.42445796 63.60691394 -74.55859375 55.16015625 C-74.20796875 54.10828125 -73.85734375 53.05640625 -73.49609375 51.97265625 C-66.02818948 32.05824487 -50.17933328 16.93157155 -31.42578125 7.6015625 C-21.38536399 3.18430321 -10.92033942 0.68356323 0 0 Z " fill="#0097A7" transform="translate(759.55859375,188.83984375)"/>
</svg>
